<?xml version="1.0" encoding="UTF-8"?>
<svg id="Layer_1" data-name="Layer 1" xmlns="http://www.w3.org/2000/svg" viewBox="0 0 331.220993233 266">
  <defs>
    <style>
      .logo-path {
        fill: #000000; /* Negro por defecto (para pestañas en modo claro) */
      }
      @media (prefers-color-scheme: dark) {
        .logo-path {
          fill: #ffffff; /* Blanco en modo oscuro */
        }
      }
    </style>
  </defs>
  <path class="logo-path" d="M134.2650519299,166.2146152605l-23.190279141,39.9297597744-18.1486891588-11.2592785099-23.1519566516-65.6749688577-.055177529,79.7416622469-27.8519433114-16.9618571249-.0104650832-122.1618074707,31.4660421356-19.2507118973,56.4399718181,31.6187843812,11.873756283,6.5394400409.454682531-72.2433216379L170.5751116238,0l-.1374654029,64.6515746095,48.960439048,1.2726315899,65.1318198105,1.8139662508.0002738036,121.8510801612-66.0940497164,42.3567888741-46.4690890211,29.6919019256-8.1175649014,5.2326143634-29.5177484276-17.9566776788-.0468353336-15.7767252015-.019839553-66.9225396338ZM226.9962430972,167.7044706919l56.3573293483-35.7286069631-.0347444521-62.4668963253-8.6117139555,5.2633063418-47.738473555,29.9514499104.0276026142,62.9807470363ZM198.1836998173,121.2512761816l46.4231110423-29.079881195-74.2934784024-3.9731391507.0149877029,16.9984496456,27.8553796572,16.0545707001ZM109.0689323097,155.9565217536l19.692499735-35.0846853424-52.795399666-30.97867342,7.8617024711,21.9544459703,19.655516883,54.0634078813,5.5856805769-9.9544950892ZM165.1590300239,207.2875427248l60.6463087965-38.6950140024-.0197934636-63.1509588567-28.1960234351,17.5909968388-32.4293739531,20.1695736685-.0011179448,64.0854023518ZM246.5728917046,212.5213504426l36.7689911753-23.5875952959-.0154280706-55.4717862712-21.5422952159,13.6923568604-34.8017323841,22.0181726073.0207247469,55.7716421822,19.5697397484-12.4227900828ZM165.153169239,264.5256324957l60.6566052007-38.7652244223-.0216176859-55.7478706936-49.322020856,31.4537565386-11.3045282516,7.3123176663-.0084384072,55.747020911Z"/>
</svg>
